<?xml version="1.0" encoding="UTF-8"?>
<svg xmlns="http://www.w3.org/2000/svg" onmouseup="{ if(window.parent.document.onmouseup) window.parent.document.onmouseup(arguments[0]);}" viewBox="0 0 36 36" height="128" width="128" xmlns:xlink="http://www.w3.org/1999/xlink"><defs><circle data-cppathid="10000" r="16" cy="18" cx="18" id="audio-b"/><filter filterUnits="objectBoundingBox" y="-9.4%" x="-9.4%" height="118.8%" width="118.8%" id="audio-a"><feOffset result="shadowOffsetOuter1" in="SourceAlpha"/><feGaussianBlur stdDeviation="1" result="shadowBlurOuter1" in="shadowOffsetOuter1"/><feComposite result="shadowBlurOuter1" operator="out" in2="SourceAlpha" in="shadowBlurOuter1"/><feColorMatrix values="0 0 0 0 0   0 0 0 0 0   0 0 0 0 0  0 0 0 0.5 0" in="shadowBlurOuter1"/></filter></defs><g fill-rule="evenodd" fill="none"><rect data-cppathid="10001" opacity="0" fill="#03FF00" height="128" width="128"/><use xlink:href="#audio-b" filter="url(#audio-a)" fill="#000"/><circle data-cppathid="10002" stroke-width="2" stroke-linejoin="square" stroke="#FFF" fill="#000" r="15" cy="18" cx="18"/><path data-cppathid="10003" d="M24.0238952,9.50029496 C24.0239861,9.34396258 23.9509514,9.19658573 23.8265006,9.10197169 C23.7020498,9.00735766 23.5405088,8.97639785 23.3898952,9.01829496 L15.3898952,11.242295 C15.1734697,11.3024993 15.0237647,11.4996518 15.0238952,11.724295 L15.0238952,20.999295 C14.0569465,20.5052517 12.9093448,20.5160852 11.9518952,21.028295 C10.3948952,21.786295 9.60789523,23.376295 10.1938952,24.580295 C10.7798952,25.784295 12.5168952,26.146295 14.0738952,25.388295 C15.1656164,24.9264561 15.9149021,23.9016639 16.0238952,22.721295 C16.0238952,22.638295 16.0238952,14.204295 16.0238952,14.204295 L23.0238952,12.204295 L23.0238952,18.999295 C22.0569465,18.5052517 20.9093448,18.5160852 19.9518952,19.028295 C18.3948952,19.786295 17.6078952,21.376295 18.1938952,22.580295 C18.7798952,23.784295 20.5168952,24.146295 22.0738952,23.388295 C23.1699043,22.9248353 23.9201456,21.8937344 24.0238952,20.708295 C24.0238952,20.676295 24.0238952,9.50029496 24.0238952,9.50029496 Z" fill-rule="nonzero" fill="#FFF"/></g></svg>