<?xml version="1.0" encoding="UTF-8"?>
<svg xmlns="http://www.w3.org/2000/svg" onmouseup="{ if(window.parent.document.onmouseup) window.parent.document.onmouseup(arguments[0]);}" viewBox="0 0 36 36" height="128" width="128" xmlns:xlink="http://www.w3.org/1999/xlink"><defs><circle data-cppathid="10000" r="16" cy="18" cx="18" id="display-text-b"/><filter filterUnits="objectBoundingBox" y="-9.4%" x="-9.4%" height="118.8%" width="118.8%" id="display-text-a"><feOffset result="shadowOffsetOuter1" in="SourceAlpha"/><feGaussianBlur stdDeviation="1" result="shadowBlurOuter1" in="shadowOffsetOuter1"/><feComposite result="shadowBlurOuter1" operator="out" in2="SourceAlpha" in="shadowBlurOuter1"/><feColorMatrix values="0 0 0 0 0   0 0 0 0 0   0 0 0 0 0  0 0 0 0.5 0" in="shadowBlurOuter1"/></filter></defs><g fill-rule="evenodd" fill="none"><rect data-cppathid="10001" opacity="0" fill="#03FF00" height="128" width="128"/><use xlink:href="#display-text-b" filter="url(#display-text-a)" fill="#000"/><circle data-cppathid="10002" stroke-width="2" stroke-linejoin="square" stroke="#FFF" fill="#000" r="15" cy="18" cx="18"/><path data-cppathid="10003" d="M10.8,11 C10.3581722,11 10,11.3581722 10,11.8 L10,16.6 C10,17.0418278 10.3581722,17.4 10.8,17.4 L12.4,17.4 C12.8418278,17.4 13.0153787,17.0418278 13.0153787,16.6 L13.0153787,14.0060748 L15.9816316,14.0060748 L15.9816316,23.9940897 L14,23.9940897 C13.5581722,23.9940897 13.2,24.1581722 13.2,24.6 L13.2,26.2 C13.2,26.6418278 13.5581722,27 14,27 L22,27 C22.4418278,27 22.8,26.6418278 22.8,26.2 L22.8,24.6 C22.8,24.1581722 22.4418278,23.9940897 22,23.9940897 L20.0302839,23.9940897 L20.0302839,14.0060748 L22.9482391,14.0060748 L22.9482391,16.6 C22.9482391,17.0418278 23.1581722,17.4 23.6,17.4 L25.2,17.4 C25.6418278,17.4 26,17.0418278 26,16.6 L26,11.8 C26,11.3581722 25.6418278,11 25.2,11 L10.8,11 Z" fill-rule="nonzero" fill="#FFF"/></g></svg>