<?xml version="1.0" encoding="UTF-8"?>
<svg xmlns="http://www.w3.org/2000/svg" onmouseup="{ if(window.parent.document.onmouseup) window.parent.document.onmouseup(arguments[0]);}" viewBox="0 0 36 36" height="256" width="256" xmlns:xlink="http://www.w3.org/1999/xlink"><defs><circle data-cppathid="10000" r="16" cy="18" cx="18" id="alert-circle-b"/><filter filterUnits="objectBoundingBox" y="-9.4%" x="-9.4%" height="118.8%" width="118.8%" id="alert-circle-a"><feOffset result="shadowOffsetOuter1" in="SourceAlpha"/><feGaussianBlur stdDeviation="1" result="shadowBlurOuter1" in="shadowOffsetOuter1"/><feComposite result="shadowBlurOuter1" operator="out" in2="SourceAlpha" in="shadowBlurOuter1"/><feColorMatrix values="0 0 0 0 0   0 0 0 0 0   0 0 0 0 0  0 0 0 0.5 0" in="shadowBlurOuter1"/></filter></defs><g fill-rule="evenodd" fill="none"><rect data-cppathid="10001" opacity="0" fill="#7ED321" height="128" width="128"/><use xlink:href="#alert-circle-b" filter="url(#alert-circle-a)" fill="#000"/><circle data-cppathid="10002" stroke-width="2" stroke-linejoin="square" stroke="#FFF" fill="#000" r="15" cy="18" cx="18"/><path data-cppathid="10003" d="M16.0009442,25.2772115 C15.9836883,24.0263386 16.9821166,22.9974921 18.2329442,22.9772115 C18.2889442,22.9772115 18.3449442,22.9772115 18.4009442,22.9772115 C18.9913409,22.93228 19.5753978,23.1237793 20.0245725,23.5095632 C20.4737472,23.895347 20.7512276,24.4437985 20.7959442,25.0342115 C20.8883493,26.30094 19.9479627,27.4077746 18.6829442,27.5212115 C18.5888297,27.5233751 18.4946691,27.5200361 18.4009442,27.5112115 C17.77626,27.5745305 17.1545912,27.3655538 16.6949997,26.9377508 C16.2354083,26.5099478 15.9824853,25.9048252 16.0009442,25.2772115 Z M20.4349442,8.30521154 C20.5623762,8.38304134 20.6386136,8.52293688 20.6349442,8.67221154 L20.6349442,10.7542115 C20.6349442,13.5542115 20.0689442,18.7152115 19.9689442,19.7162115 C19.9689442,19.8162115 19.9359442,19.9162115 19.7349442,19.9162115 L17.0679442,19.9162115 C16.9488838,19.9232251 16.8455571,19.8349116 16.8339442,19.7162115 C16.7679442,18.7822115 16.2339442,13.6552115 16.2339442,10.8542115 L16.2339442,8.76621154 C16.2081432,8.62136151 16.2746278,8.4756528 16.4009442,8.40021154 C17.0386354,8.14939842 17.7158397,8.01395756 18.4009442,8.00021154 C19.0907366,7.99468161 19.7771119,8.09760416 20.4349442,8.30521154 Z" fill-rule="nonzero" fill="#FFF"/></g></svg>